<?xml version="1.0" standalone="no"?><!DOCTYPE svg PUBLIC "-//W3C//DTD SVG 1.1//EN" "http://www.w3.org/Graphics/SVG/1.1/DTD/svg11.dtd"><svg height="1024" node-id="1" sillyvg="true" template-height="1024" template-width="1024" version="1.1" viewBox="0 0 1024 1024" width="1024" xmlns="http://www.w3.org/2000/svg" xmlns:xlink="http://www.w3.org/1999/xlink"><defs node-id="892"></defs><g node-id="996"><g node-id="997"><path d="M 903.90 132.50 L 893.00 132.50 L 893.00 121.50 L 892.70 120.10 L 891.90 118.90 L 890.70 118.10 L 889.30 117.80 L 887.80 118.10 L 886.60 118.90 L 885.90 120.10 L 885.60 121.50 L 885.60 132.50 L 874.70 132.50 L 873.20 132.80 L 872.00 133.60 L 871.20 134.70 L 870.90 136.20 L 871.20 137.60 L 872.00 138.80 L 873.20 139.60 L 874.70 139.90 L 885.60 139.90 L 885.60 150.80 L 885.90 152.30 L 886.70 153.40 L 887.80 154.20 L 889.30 154.50 L 890.70 154.20 L 891.90 153.40 L 892.70 152.30 L 893.00 150.80 L 893.00 139.90 L 903.90 139.90 L 905.40 139.60 L 906.60 138.80 L 907.30 137.60 L 907.60 136.20 L 907.30 134.70 L 906.60 133.60 L 905.40 132.80 L 903.90 132.50 Z" fill="#e55b48" fill-rule="nonzero" group-id="1,2" node-id="899" stroke="none" target-height="36.699997" target-width="36.69995" target-x="870.9" target-y="117.8"></path></g><g node-id="998"><path d="M 959.50 268.00 L 956.10 271.40 L 952.20 267.60 L 951.00 267.60 L 950.40 268.00 L 950.10 268.50 L 950.10 269.70 L 953.80 273.70 L 950.40 277.10 L 950.00 278.20 L 950.40 279.40 L 951.00 279.70 L 952.20 279.70 L 956.10 276.00 L 959.50 279.40 L 960.10 279.70 L 961.30 279.70 L 962.20 278.80 L 962.20 277.60 L 958.40 273.70 L 961.80 270.30 L 962.30 269.10 L 961.80 268.00 L 961.30 267.60 L 960.10 267.60 L 959.50 268.00 Z" fill="#e55b48" fill-rule="nonzero" group-id="1,3" node-id="904" stroke="none" target-height="12.100006" target-width="12.299988" target-x="950" target-y="267.6"></path></g><g node-id="999"><path d="M 998.90 181.60 L 993.40 176.10 L 999.50 169.80 L 999.50 167.80 L 998.90 166.90 L 998.00 166.30 L 996.00 166.30 L 989.70 172.40 L 984.20 166.90 L 983.30 166.30 L 981.30 166.30 L 980.40 166.90 L 979.80 167.80 L 979.80 169.80 L 985.90 176.10 L 979.80 182.50 L 979.80 184.50 L 980.40 185.40 L 981.30 185.90 L 983.30 185.90 L 989.70 179.90 L 995.10 185.40 L 996.00 185.90 L 998.00 185.90 L 998.90 185.40 L 999.50 184.50 L 999.50 182.50 L 998.90 181.60 Z" fill="#60c46c" fill-rule="nonzero" group-id="1,4" node-id="909" stroke="none" target-height="19.59999" target-width="19.700012" target-x="979.8" target-y="166.3"></path></g><g node-id="1000"><path d="M 863.10 232.40 L 859.00 232.40 L 858.90 227.80 L 858.10 227.00 L 857.60 226.90 L 857.00 227.00 L 856.30 227.80 L 856.20 232.40 L 852.10 232.40 L 851.10 232.80 L 850.70 233.80 L 850.80 234.40 L 851.50 235.10 L 856.20 235.20 L 856.20 239.30 L 856.30 239.80 L 857.00 240.60 L 858.10 240.60 L 858.90 239.80 L 859.00 235.20 L 863.10 235.20 L 864.10 234.80 L 864.50 233.80 L 864.40 233.30 L 863.60 232.50 L 863.10 232.40 Z" fill="#46bcfc" fill-rule="nonzero" group-id="1,5" node-id="914" stroke="none" target-height="13.700012" target-width="13.799988" target-x="850.7" target-y="226.9"></path></g><g node-id="1001"><path d="M 767.10 75.10 L 766.90 73.90 L 766.30 73.00 L 765.30 72.40 L 764.20 72.10 L 755.60 72.10 L 763.00 67.90 L 763.90 67.10 L 764.40 66.10 L 764.50 64.90 L 764.10 63.80 L 763.30 62.90 L 762.30 62.40 L 761.20 62.30 L 760.00 62.70 L 752.70 67.00 L 756.90 59.60 L 757.30 58.50 L 757.20 57.30 L 756.70 56.30 L 755.80 55.50 L 754.70 55.20 L 753.60 55.20 L 752.60 55.70 L 751.80 56.60 L 747.50 64.00 L 747.50 55.50 L 747.30 54.30 L 746.60 53.40 L 745.70 52.80 L 744.50 52.50 L 743.40 52.80 L 742.40 53.40 L 741.80 54.30 L 741.60 55.50 L 741.60 64.00 L 737.30 56.60 L 736.50 55.70 L 735.50 55.30 L 734.40 55.20 L 733.30 55.60 L 732.40 56.30 L 731.90 57.40 L 731.80 58.50 L 732.20 59.60 L 736.40 67.00 L 729.00 62.70 L 727.90 62.40 L 726.80 62.40 L 725.80 62.90 L 725.00 63.80 L 724.60 64.90 L 724.70 66.10 L 725.20 67.10 L 726.10 67.90 L 733.50 72.10 L 724.90 72.10 L 723.80 72.40 L 722.80 73.00 L 722.20 73.90 L 722.00 75.10 L 722.20 76.30 L 722.80 77.20 L 723.80 77.80 L 724.90 78.10 L 733.40 78.10 L 726.10 82.30 L 725.20 83.10 L 724.70 84.10 L 724.60 85.30 L 725.00 86.40 L 726.10 87.50 L 728.30 87.80 L 736.40 83.20 L 732.20 90.60 L 731.80 91.70 L 731.90 92.90 L 732.30 93.90 L 733.20 94.70 L 734.70 95.10 L 736.80 94.20 L 741.60 86.20 L 741.60 94.70 L 741.80 95.90 L 742.40 96.80 L 743.40 97.50 L 744.50 97.70 L 745.70 97.50 L 746.60 96.80 L 747.30 95.90 L 747.50 94.70 L 747.50 86.20 L 752.30 94.20 L 754.30 95.10 L 755.80 94.70 L 756.70 93.90 L 757.20 92.90 L 757.30 91.70 L 756.90 90.60 L 752.70 83.20 L 760.80 87.80 L 763.00 87.50 L 764.10 86.40 L 764.50 85.30 L 764.40 84.10 L 763.90 83.10 L 763.00 82.30 L 755.60 78.10 L 764.10 78.10 L 765.30 77.80 L 766.30 77.20 L 766.90 76.30 L 767.10 75.10 Z" fill="#e25987" fill-rule="nonzero" group-id="1,6" node-id="919" stroke="none" target-height="45.199997" target-width="45.099976" target-x="722" target-y="52.5"></path></g><g node-id="1002"><path d="M 808.20 145.90 L 810.40 152.40 L 817.20 152.50 L 811.80 156.60 L 813.80 163.20 L 808.20 159.30 L 802.60 163.20 L 804.60 156.60 L 799.10 152.50 L 805.90 152.40 Z" fill="#fcaa3d" fill-rule="nonzero" group-id="1,7" node-id="924" stroke="none" target-height="17.300003" target-width="18.100037" target-x="799.1" target-y="145.9"></path></g><g node-id="1003"><path d="M 925.40 317.90 L 929.80 330.60 L 943.20 330.80 L 932.50 338.90 L 936.40 351.70 L 925.40 344.10 L 914.40 351.70 L 918.30 338.90 L 907.70 330.80 L 921.00 330.60 Z" fill="#46bcfc" fill-rule="nonzero" group-id="1,8" node-id="929" stroke="none" target-height="33.80002" target-width="35.5" target-x="907.7" target-y="317.9"></path></g><g node-id="1004"><path d="M 933.40 191.60 L 932.70 194.70 L 931.00 197.30 L 928.40 199.00 L 925.40 199.60 L 922.40 199.00 L 919.80 197.30 L 918.10 194.70 L 917.50 191.60 L 918.10 188.60 L 919.80 186.00 L 922.40 184.30 L 925.40 183.70 L 928.40 184.30 L 931.00 186.00 L 932.70 188.60 L 933.40 191.60 Z" fill="#fcaa3d" fill-rule="nonzero" group-id="1,9" node-id="934" stroke="none" target-height="15.900009" target-width="15.900024" target-x="917.5" target-y="183.7"></path></g><g node-id="1005"><path d="M 728.90 145.10 L 728.70 146.50 L 727.40 148.80 L 725.10 150.10 L 723.70 150.30 L 721.10 149.60 L 719.20 147.70 L 718.70 146.50 L 718.50 145.10 L 719.20 142.50 L 721.10 140.60 L 723.70 139.90 L 725.10 140.10 L 727.40 141.40 L 728.70 143.70 L 728.90 145.10 Z" fill="#46bcfc" fill-rule="nonzero" group-id="1,10" node-id="939" stroke="none" target-height="10.400009" target-width="10.400024" target-x="718.5" target-y="139.9"></path></g><g node-id="1006"><path d="M 296.70 963.20 L 307.60 958.20 L 312.60 969.10 L 313.50 970.40 L 314.90 971.20 L 316.40 971.50 L 318.00 971.10 L 319.30 970.20 L 320.10 968.80 L 320.40 967.30 L 320.00 965.70 L 315.00 954.80 L 325.90 949.90 L 327.20 948.90 L 328.00 947.60 L 328.30 946.00 L 327.90 944.50 L 327.00 943.10 L 325.70 942.30 L 324.10 942.10 L 322.50 942.40 L 311.70 947.40 L 306.70 936.50 L 305.70 935.20 L 304.40 934.40 L 302.90 934.10 L 301.30 934.50 L 299.90 935.50 L 299.10 936.80 L 298.90 938.30 L 299.30 939.90 L 304.20 950.80 L 293.30 955.80 L 292.00 956.70 L 291.20 958.00 L 291.00 959.60 L 291.30 961.20 L 292.30 962.50 L 293.60 963.30 L 295.10 963.60 L 296.70 963.20 Z" fill="#60c46c" fill-rule="nonzero" group-id="1,11" node-id="944" stroke="none" target-height="37.400024" target-width="37.299988" target-x="291" target-y="934.1"></path></g><g node-id="1007"><path d="M 190.10 870.00 L 193.80 860.10 L 203.60 863.80 L 205.00 864.00 L 206.40 863.70 L 207.50 862.90 L 208.20 861.70 L 208.40 860.30 L 208.10 859.00 L 207.30 857.90 L 206.10 857.10 L 196.30 853.40 L 199.90 843.60 L 200.20 842.20 L 199.90 840.90 L 199.10 839.80 L 197.90 839.00 L 196.40 838.80 L 195.10 839.10 L 194.00 839.90 L 193.30 841.10 L 189.60 850.90 L 179.80 847.30 L 178.30 847.10 L 177.00 847.40 L 175.90 848.20 L 175.20 849.40 L 174.90 850.80 L 175.30 852.10 L 176.00 853.20 L 177.30 854.00 L 187.10 857.60 L 183.40 867.50 L 183.20 868.90 L 183.50 870.20 L 184.30 871.30 L 185.50 872.10 L 186.90 872.30 L 188.30 872.00 L 189.40 871.20 L 190.10 870.00 Z" fill="#e55b48" fill-rule="nonzero" group-id="1,12" node-id="949" stroke="none" target-height="33.5" target-width="33.5" target-x="174.9" target-y="838.8"></path></g><g node-id="1008"><path d="M 191.10 957.00 L 198.30 959.80 L 195.50 968.10 L 196.30 969.90 L 197.20 970.40 L 198.20 970.60 L 200.00 969.80 L 203.30 961.60 L 210.60 964.30 L 211.60 964.50 L 212.60 964.20 L 213.40 963.60 L 214.00 962.70 L 214.10 961.70 L 213.30 959.90 L 205.10 956.60 L 207.90 949.40 L 208.00 948.30 L 207.20 946.50 L 206.30 946.00 L 205.20 945.80 L 203.40 946.60 L 200.20 954.80 L 192.90 952.10 L 191.90 951.90 L 190.90 952.20 L 190.10 952.70 L 189.50 953.60 L 189.30 954.70 L 190.20 956.50 L 191.10 957.00 Z" fill="#fcaa3d" fill-rule="nonzero" group-id="1,13" node-id="954" stroke="none" target-height="24.799988" target-width="24.800003" target-x="189.3" target-y="945.8"></path></g><g node-id="1009"><path d="M 293.50 854.40 L 297.20 852.70 L 299.20 856.90 L 300.20 857.20 L 300.80 857.10 L 301.20 856.80 L 301.60 855.80 L 299.70 851.50 L 303.50 849.80 L 304.20 849.10 L 304.20 848.00 L 303.80 847.50 L 302.80 847.20 L 298.60 849.00 L 296.90 845.30 L 296.60 844.80 L 295.60 844.50 L 294.60 844.90 L 294.20 845.90 L 296.00 850.20 L 292.30 851.90 L 291.60 852.60 L 291.60 853.70 L 292.00 854.20 L 292.90 854.50 L 293.50 854.40 Z" fill="#46bcfc" fill-rule="nonzero" group-id="1,14" node-id="959" stroke="none" target-height="12.700012" target-width="12.600006" target-x="291.6" target-y="844.5"></path></g><g node-id="1010"><path d="M 417.30 948.30 L 417.80 949.00 L 419.30 949.50 L 425.70 946.80 L 421.80 952.60 L 422.10 954.10 L 422.70 954.80 L 423.40 955.10 L 425.00 954.80 L 429.20 949.30 L 428.70 956.20 L 429.70 957.40 L 431.40 957.60 L 432.60 956.60 L 432.80 955.80 L 433.40 949.70 L 436.50 955.90 L 437.90 956.50 L 438.80 956.30 L 439.50 955.80 L 440.00 954.30 L 437.30 947.90 L 442.30 951.50 L 443.00 951.80 L 444.60 951.50 L 445.60 950.20 L 445.30 948.60 L 439.80 944.40 L 446.70 944.90 L 447.90 943.90 L 448.10 943.10 L 448.00 942.30 L 447.00 941.00 L 440.10 940.20 L 446.40 937.20 L 446.90 935.70 L 446.70 934.80 L 446.20 934.20 L 444.70 933.60 L 438.40 936.30 L 442.30 930.60 L 442.00 929.00 L 441.40 928.40 L 440.40 928.00 L 439.30 928.20 L 438.40 928.90 L 434.90 933.90 L 435.40 926.90 L 434.40 925.70 L 433.60 925.50 L 432.50 925.70 L 431.60 926.30 L 431.20 927.40 L 430.70 933.50 L 427.60 927.20 L 426.10 926.70 L 425.30 926.90 L 424.60 927.40 L 424.10 928.90 L 426.80 935.20 L 421.80 931.70 L 420.80 931.30 L 419.70 931.50 L 418.80 932.20 L 418.50 933.00 L 418.80 934.50 L 424.30 938.70 L 418.20 938.10 L 417.20 938.30 L 416.30 939.00 L 415.90 940.00 L 416.00 940.90 L 417.00 942.10 L 423.90 942.90 L 417.70 946.00 L 417.10 947.50 L 417.30 948.30 Z" fill="#46bcfc" fill-rule="nonzero" group-id="1,15" node-id="964" stroke="none" target-height="32.099976" target-width="32.200012" target-x="415.9" target-y="925.5"></path></g><g node-id="1011"><path d="M 379.40 910.20 L 374.70 905.30 L 368.40 908.00 L 371.60 902.00 L 367.10 896.90 L 373.80 898.10 L 377.30 892.20 L 378.20 899.00 L 384.90 900.50 L 378.70 903.50 Z" fill="#fcaa3d" fill-rule="nonzero" group-id="1,16" node-id="969" stroke="none" target-height="18" target-width="17.799988" target-x="367.1" target-y="892.2"></path></g><g node-id="1012"><path d="M 198.10 795.70 L 193.00 790.30 L 186.20 793.30 L 189.70 786.70 L 184.80 781.20 L 192.10 782.50 L 195.90 776.10 L 196.90 783.50 L 204.10 785.10 L 197.40 788.30 Z" fill="#e55b48" fill-rule="nonzero" group-id="1,17" node-id="974" stroke="none" target-height="19.600037" target-width="19.300003" target-x="184.8" target-y="776.1"></path></g><g node-id="1013"><path d="M 261.70 917.40 L 261.50 918.90 L 260.40 921.80 L 258.10 924.00 L 255.30 925.20 L 252.20 925.20 L 249.30 924.00 L 247.10 921.80 L 245.90 918.90 L 245.90 915.80 L 247.10 913.00 L 249.30 910.80 L 252.20 909.60 L 255.30 909.60 L 258.10 910.80 L 260.40 913.00 L 261.50 915.80 L 261.70 917.40 Z" fill="#fcaa3d" fill-rule="nonzero" group-id="1,18" node-id="979" stroke="none" target-height="15.600037" target-width="15.800018" target-x="245.9" target-y="909.6"></path></g><path d="M 455.30 886.80 L 455.10 888.20 L 453.70 890.50 L 451.50 891.80 L 450.00 892.10 L 447.40 891.30 L 445.50 889.50 L 445.00 888.20 L 444.80 886.80 L 445.50 884.20 L 447.40 882.30 L 450.00 881.60 L 451.50 881.80 L 453.70 883.10 L 455.10 885.40 L 455.30 886.80 Z" fill="#46bcfc" fill-rule="nonzero" group-id="1,19" node-id="984" stroke="none" target-height="10.5" target-width="10.5" target-x="444.8" target-y="881.6"></path></g><path d="M 796.00 641.70 L 703.70 297.10 L 701.60 290.40 L 699.20 284.00 L 696.40 277.80 L 693.30 271.90 L 689.80 266.20 L 686.00 260.80 L 681.90 255.60 L 677.50 250.80 L 672.80 246.20 L 662.70 238.00 L 657.30 234.30 L 650.40 236.20 L 645.00 238.20 L 637.90 241.40 L 631.20 245.20 L 624.90 249.40 L 619.00 254.10 L 613.40 259.30 L 608.40 264.80 L 603.80 270.80 L 599.60 277.20 L 596.00 283.90 L 592.90 290.90 L 590.40 298.10 L 587.10 311.30 L 584.60 320.00 L 581.50 328.40 L 577.90 336.40 L 573.90 344.10 L 569.30 351.60 L 564.30 358.70 L 558.80 365.30 L 553.00 371.60 L 546.70 377.60 L 540.10 383.00 L 533.20 388.10 L 525.90 392.70 L 518.30 396.80 L 510.50 400.40 L 502.40 403.50 L 494.10 406.10 L 485.60 408.20 L 476.90 409.60 L 468.10 410.50 L 459.00 410.80 L 451.30 410.60 L 443.70 410.00 L 436.20 408.90 L 428.80 407.30 L 421.50 405.40 L 414.30 403.00 L 406.60 400.00 L 399.20 396.50 L 392.10 392.60 L 385.30 388.30 L 378.70 383.60 L 372.50 378.60 L 366.60 373.20 L 361.10 367.40 L 355.80 361.40 L 351.00 355.00 L 346.60 348.30 L 342.50 341.40 L 338.90 334.20 L 335.70 326.80 L 333.00 319.10 L 330.00 308.60 L 327.80 299.10 L 325.80 292.90 L 323.40 286.90 L 320.60 281.20 L 317.40 275.60 L 313.90 270.30 L 310.10 265.30 L 305.90 260.60 L 301.40 256.10 L 296.60 252.00 L 291.50 248.20 L 286.10 244.70 L 280.50 241.70 L 274.70 238.90 L 268.60 236.60 L 262.20 234.70 L 256.20 240.00 L 250.70 245.80 L 245.50 252.00 L 240.80 258.70 L 237.40 264.30 L 234.30 270.10 L 231.60 276.20 L 229.20 282.50 L 227.20 289.10 L 134.90 633.70 L 133.20 640.90 L 132.10 648.10 L 131.40 655.20 L 131.20 662.30 L 131.50 669.30 L 132.30 676.30 L 133.50 683.10 L 135.10 689.90 L 137.20 696.50 L 139.70 702.90 L 142.50 709.20 L 145.80 715.30 L 149.40 721.10 L 153.40 726.70 L 157.80 732.10 L 162.50 737.20 L 167.60 741.90 L 172.90 746.40 L 178.60 750.50 L 184.60 754.30 L 192.40 750.30 L 197.70 746.90 L 202.70 743.40 L 207.50 739.50 L 216.10 730.90 L 223.40 721.30 L 229.50 710.80 L 232.00 705.30 L 236.00 693.60 L 239.40 680.60 L 242.10 672.70 L 245.10 665.00 L 248.60 657.60 L 252.60 650.60 L 257.10 643.80 L 261.90 637.30 L 267.00 631.20 L 272.60 625.50 L 278.50 620.10 L 284.70 615.10 L 291.20 610.50 L 298.00 606.30 L 305.10 602.50 L 312.40 599.20 L 319.90 596.40 L 327.60 594.00 L 335.50 592.20 L 343.50 590.80 L 351.60 590.00 L 360.00 589.70 L 557.90 589.70 L 566.20 590.00 L 574.40 590.80 L 582.40 592.20 L 590.20 594.00 L 598.00 596.40 L 605.50 599.20 L 612.70 602.50 L 619.80 606.30 L 626.60 610.50 L 633.10 615.00 L 639.30 620.00 L 645.30 625.40 L 650.80 631.20 L 656.00 637.30 L 660.80 643.70 L 665.30 650.50 L 669.20 657.50 L 672.80 664.80 L 675.80 672.50 L 678.40 680.40 L 681.90 693.70 L 684.10 700.70 L 686.80 707.30 L 690.00 713.80 L 693.70 719.90 L 697.80 725.80 L 702.40 731.30 L 707.30 736.50 L 712.70 741.30 L 718.40 745.70 L 724.50 749.60 L 730.90 753.10 L 737.60 756.10 L 743.70 758.30 L 749.90 760.10 L 755.50 756.20 L 760.90 752.00 L 765.90 747.50 L 770.60 742.80 L 775.00 737.70 L 779.10 732.40 L 782.90 726.90 L 786.30 721.10 L 789.30 715.10 L 792.00 709.00 L 794.30 702.70 L 796.20 696.30 L 797.70 689.70 L 798.80 683.00 L 799.40 676.30 L 799.70 669.40 L 799.40 662.50 L 798.80 655.60 L 797.60 648.70 L 796.00 641.70 Z M 654.80 511.50 L 651.30 511.20 L 648.00 510.50 L 645.00 509.20 L 642.10 507.60 L 639.60 505.50 L 637.30 503.10 L 672.30 503.10 L 670.00 505.50 L 667.50 507.60 L 664.60 509.20 L 661.60 510.50 L 658.30 511.20 L 654.80 511.50 Z M 892.90 765.20 L 880.60 767.80 L 868.40 768.90 L 860.30 768.80 L 852.40 768.20 L 844.50 766.90 L 850.30 762.30 L 855.70 757.50 L 860.90 752.30 L 865.70 746.80 L 870.20 740.90 L 874.40 734.80 L 878.10 728.50 L 881.50 721.90 L 884.60 715.00 L 887.30 707.80 L 887.80 705.30 L 888.00 702.90 L 887.70 700.50 L 885.90 696.10 L 884.50 694.20 L 882.80 692.50 L 880.80 691.20 L 877.50 689.90 L 878.80 682.00 L 879.50 673.90 L 879.50 665.70 L 878.90 657.40 L 874.30 657.40 L 870.50 656.20 L 867.10 654.00 L 865.70 652.50 L 863.50 649.00 L 846.90 587.40 L 846.50 584.90 L 846.50 582.50 L 846.90 580.10 L 848.90 575.90 L 850.50 574.00 L 852.30 572.40 L 854.40 571.20 L 856.80 570.30 L 848.80 540.40 L 851.20 539.50 L 853.30 538.30 L 855.10 536.70 L 856.60 534.90 L 857.80 532.90 L 858.70 530.60 L 859.10 528.20 L 859.10 525.80 L 858.70 523.30 L 797.10 293.50 L 794.70 285.70 L 791.90 278.30 L 788.60 271.10 L 784.90 264.10 L 780.80 257.40 L 776.20 251.10 L 771.20 245.00 L 765.80 239.20 L 760.00 233.90 L 753.90 228.80 L 747.40 224.20 L 740.40 219.90 L 734.40 216.60 L 739.60 214.80 L 752.10 211.50 L 759.30 210.40 L 766.40 209.70 L 773.40 209.50 L 780.50 209.80 L 787.40 210.60 L 794.30 211.80 L 801.00 213.40 L 807.60 215.40 L 814.00 217.90 L 820.30 220.80 L 826.40 224.00 L 832.20 227.60 L 837.80 231.60 L 843.20 236.00 L 848.30 240.70 L 853.00 245.70 L 857.50 251.00 L 861.60 256.60 L 865.40 262.60 L 868.80 268.80 L 871.80 275.30 L 874.30 282.00 L 876.50 289.10 L 968.80 633.70 L 970.40 640.90 L 971.60 648.10 L 972.30 655.20 L 972.40 662.20 L 972.10 669.30 L 971.40 676.20 L 970.20 683.00 L 968.60 689.80 L 966.50 696.40 L 964.10 702.80 L 961.20 709.10 L 957.90 715.20 L 954.30 721.00 L 950.30 726.60 L 946.00 731.90 L 941.30 737.00 L 936.30 741.80 L 931.00 746.30 L 925.30 750.40 L 919.30 754.20 L 913.20 757.50 L 906.70 760.50 L 899.90 763.10 L 892.90 765.20 Z" fill="#f2a536" fill-rule="nonzero" node-id="988" stroke="none" target-height="559.4" target-width="841.2" target-x="131.2" target-y="209.5"></path><path d="M 877.50 689.90 L 875.10 689.50 L 870.60 689.90 L 866.40 691.70 L 864.60 693.10 L 861.70 696.70 L 857.90 706.30 L 854.50 713.30 L 850.70 719.90 L 846.30 726.20 L 841.40 732.10 L 836.10 737.50 L 830.40 742.50 L 824.30 747.00 L 817.80 751.00 L 811.00 754.40 L 803.90 757.30 L 796.40 759.70 L 784.70 762.00 L 778.90 762.60 L 767.20 762.70 L 755.60 761.30 L 749.90 760.10 L 755.50 756.20 L 760.90 752.00 L 765.90 747.50 L 770.60 742.80 L 775.00 737.70 L 779.10 732.40 L 782.90 726.90 L 786.30 721.10 L 789.30 715.10 L 792.00 709.00 L 794.30 702.70 L 796.20 696.20 L 797.70 689.70 L 798.80 683.00 L 799.40 676.30 L 799.70 669.40 L 799.50 662.50 L 798.80 655.60 L 797.60 648.70 L 796.00 641.70 L 703.70 297.10 L 701.60 290.40 L 699.20 284.00 L 696.40 277.80 L 693.30 271.90 L 689.80 266.20 L 686.00 260.80 L 681.90 255.60 L 672.80 246.20 L 662.70 238.00 L 657.30 234.30 L 669.10 232.10 L 675.00 231.60 L 686.90 231.70 L 698.50 233.40 L 704.30 234.80 L 715.60 238.70 L 721.10 241.20 L 726.50 244.10 L 731.80 247.40 L 736.80 251.00 L 746.00 259.00 L 754.00 268.10 L 760.70 278.20 L 763.60 283.50 L 766.10 289.00 L 768.30 294.80 L 770.10 300.70 L 831.70 530.50 L 832.40 532.50 L 834.50 536.00 L 836.70 538.00 L 839.30 539.60 L 843.10 540.70 L 845.20 540.90 L 848.80 540.40 L 856.80 570.30 L 854.40 571.20 L 852.30 572.40 L 850.50 574.00 L 847.80 577.90 L 846.90 580.20 L 846.50 582.50 L 846.50 584.90 L 846.90 587.40 L 863.50 649.00 L 865.70 652.50 L 867.10 654.00 L 870.40 656.20 L 874.30 657.40 L 878.90 657.40 L 879.50 665.70 L 879.50 673.90 L 878.80 682.00 L 877.50 689.90 Z" fill="#ef4e0f" fill-rule="nonzero" node-id="990" stroke="none" target-height="531.1" target-width="222.20001" target-x="657.3" target-y="231.6"></path><path d="M 302.80 466.10 L 302.00 474.10 L 299.70 481.50 L 296.00 488.20 L 291.10 494.10 L 285.30 498.90 L 278.50 502.60 L 271.10 504.90 L 263.10 505.70 L 259.00 505.50 L 251.30 503.90 L 244.20 500.90 L 237.90 496.70 L 232.50 491.30 L 228.20 485.00 L 225.20 477.90 L 223.70 470.20 L 223.40 466.10 L 223.70 462.00 L 225.20 454.30 L 228.20 447.10 L 232.50 440.90 L 237.90 435.40 L 240.90 433.20 L 247.70 429.50 L 255.00 427.20 L 263.10 426.40 L 271.10 427.20 L 278.50 429.50 L 285.30 433.20 L 291.10 438.00 L 296.00 443.90 L 299.70 450.60 L 302.00 458.00 L 302.80 466.10 Z" fill="#ffffff" fill-rule="nonzero" node-id="992" stroke="none" target-height="79.30002" target-width="79.399994" target-x="223.4" target-y="426.4"></path><path d="M 887.20 707.80 L 884.60 715.00 L 881.50 721.90 L 878.10 728.50 L 874.30 734.80 L 870.20 740.90 L 865.70 746.80 L 860.80 752.30 L 855.70 757.50 L 850.30 762.30 L 844.50 766.90 L 838.30 771.20 L 831.90 775.20 L 825.20 778.70 L 818.20 781.80 L 811.10 784.50 L 803.60 786.70 L 795.90 788.50 L 788.20 789.80 L 780.50 790.60 L 772.70 790.90 L 765.00 790.70 L 757.30 789.90 L 749.70 788.70 L 742.10 787.00 L 734.60 784.80 L 727.20 782.10 L 720.60 779.20 L 714.30 776.00 L 708.20 772.40 L 702.30 768.50 L 696.70 764.30 L 686.20 755.00 L 676.90 744.50 L 672.80 738.90 L 668.90 733.10 L 665.40 727.10 L 662.20 720.80 L 659.40 714.40 L 657.00 707.70 L 651.40 687.90 L 649.40 681.80 L 647.10 675.90 L 644.30 670.30 L 641.20 664.80 L 637.80 659.60 L 630.10 649.90 L 621.10 641.20 L 611.30 633.80 L 606.00 630.60 L 594.80 625.10 L 583.00 621.10 L 576.90 619.60 L 570.70 618.60 L 564.40 618.00 L 557.90 617.70 L 360.00 617.70 L 353.50 618.00 L 347.20 618.60 L 340.90 619.60 L 334.80 621.10 L 328.80 622.90 L 317.30 627.70 L 311.90 630.60 L 301.50 637.40 L 292.10 645.50 L 287.80 650.00 L 280.00 659.70 L 276.60 665.00 L 273.50 670.50 L 270.80 676.20 L 268.40 682.10 L 266.40 688.30 L 260.60 708.60 L 257.80 716.10 L 254.50 723.30 L 250.80 730.20 L 246.70 736.90 L 242.10 743.30 L 237.10 749.40 L 231.70 755.10 L 226.00 760.50 L 219.80 765.50 L 213.30 770.20 L 206.40 774.50 L 199.20 778.30 L 191.90 781.60 L 184.40 784.40 L 176.90 786.80 L 169.20 788.60 L 161.40 789.90 L 153.60 790.60 L 145.70 790.90 L 137.80 790.60 L 130.00 789.90 L 122.20 788.60 L 114.30 786.70 L 107.40 784.70 L 100.30 782.10 L 93.60 779.10 L 87.10 775.80 L 81.00 772.20 L 75.10 768.30 L 69.50 764.00 L 62.90 758.20 L 56.70 752.00 L 51.10 745.50 L 45.90 738.60 L 41.20 731.30 L 37.10 723.70 L 33.60 715.90 L 30.50 707.80 L 28.10 699.50 L 26.30 691.00 L 25.00 682.40 L 24.40 673.60 L 24.40 666.60 L 24.80 659.50 L 25.60 652.40 L 26.80 645.30 L 28.50 638.10 L 81.70 439.30 L 82.60 436.90 L 83.80 434.80 L 85.40 433.00 L 87.20 431.50 L 89.30 430.30 L 91.50 429.50 L 93.90 429.00 L 96.30 429.00 L 98.90 429.50 L 101.30 430.30 L 103.40 431.60 L 105.20 433.10 L 106.70 435.00 L 107.90 437.00 L 108.70 439.30 L 109.20 441.60 L 109.20 444.10 L 108.70 446.60 L 55.50 645.40 L 53.90 652.30 L 52.90 659.10 L 52.40 665.90 L 52.40 672.70 L 52.90 679.40 L 53.80 686.00 L 55.20 692.50 L 57.10 698.90 L 59.40 705.20 L 62.20 711.20 L 65.30 717.00 L 68.90 722.60 L 72.90 728.00 L 77.20 733.00 L 82.00 737.80 L 87.10 742.20 L 92.50 746.30 L 98.20 749.90 L 104.30 753.20 L 110.80 756.10 L 116.20 758.10 L 121.50 759.70 L 128.00 761.20 L 134.40 762.20 L 140.80 762.80 L 147.20 762.90 L 153.60 762.60 L 159.90 761.80 L 166.20 760.60 L 172.40 758.90 L 178.50 756.80 L 188.50 752.40 L 197.70 747.00 L 202.70 743.40 L 207.50 739.50 L 211.90 735.40 L 219.90 726.30 L 226.60 716.20 L 232.00 705.30 L 234.20 699.60 L 239.50 680.70 L 242.10 672.70 L 245.10 665.00 L 248.70 657.70 L 252.60 650.60 L 257.10 643.80 L 261.90 637.40 L 267.00 631.30 L 272.60 625.50 L 278.50 620.10 L 284.70 615.10 L 291.20 610.50 L 298.10 606.30 L 305.10 602.60 L 312.40 599.30 L 319.90 596.40 L 327.60 594.10 L 335.50 592.20 L 343.50 590.90 L 351.60 590.10 L 360.00 589.80 L 557.90 589.80 L 566.20 590.10 L 574.40 590.90 L 582.40 592.20 L 590.20 594.10 L 598.00 596.40 L 605.50 599.30 L 612.70 602.60 L 619.80 606.30 L 626.60 610.50 L 633.10 615.10 L 639.30 620.10 L 645.30 625.50 L 650.80 631.20 L 656.00 637.30 L 660.80 643.70 L 665.30 650.50 L 669.20 657.50 L 672.80 664.90 L 675.80 672.50 L 678.40 680.50 L 681.90 693.70 L 684.10 700.70 L 686.80 707.40 L 690.00 713.80 L 693.70 720.00 L 697.80 725.80 L 702.40 731.40 L 707.30 736.50 L 712.70 741.30 L 718.40 745.70 L 724.50 749.60 L 730.90 753.10 L 737.60 756.10 L 743.70 758.30 L 749.90 760.10 L 755.60 761.30 L 767.20 762.70 L 778.90 762.70 L 784.70 762.10 L 796.40 759.70 L 803.90 757.40 L 811.00 754.50 L 817.80 751.00 L 824.30 747.00 L 830.40 742.50 L 836.10 737.50 L 841.40 732.10 L 846.30 726.20 L 850.70 720.00 L 854.50 713.40 L 857.90 706.40 L 861.70 696.70 L 864.60 693.10 L 868.40 690.60 L 872.80 689.50 L 875.10 689.50 L 878.50 690.20 L 880.80 691.20 L 882.80 692.50 L 885.90 696.10 L 887.00 698.20 L 887.70 700.50 L 888.00 702.90 L 887.80 705.30 L 887.20 707.80 Z M 167.50 263.80 L 163.00 269.30 L 159.10 275.10 L 155.60 281.10 L 152.50 287.30 L 148.60 296.60 L 146.90 298.90 L 144.70 300.70 L 142.30 302.10 L 139.60 303.00 L 136.80 303.30 L 134.40 303.00 L 132.10 302.40 L 129.70 301.30 L 127.80 299.90 L 126.10 298.30 L 124.70 296.30 L 123.60 294.20 L 123.00 291.90 L 122.70 289.50 L 122.90 287.10 L 123.50 284.60 L 126.30 277.50 L 129.50 270.60 L 133.10 263.90 L 137.10 257.50 L 141.60 251.30 L 146.50 245.40 L 148.30 243.60 L 150.30 242.30 L 152.50 241.30 L 154.90 240.80 L 157.20 240.60 L 159.60 240.90 L 161.90 241.50 L 164.10 242.60 L 166.20 244.10 L 167.90 245.90 L 169.30 248.00 L 170.20 250.20 L 170.90 254.90 L 170.70 257.20 L 170.00 259.60 L 169.00 261.70 L 167.50 263.80 Z M 137.30 339.80 L 122.70 394.40 L 122.00 396.40 L 119.80 399.90 L 117.60 401.90 L 115.10 403.50 L 111.30 404.60 L 107.40 404.60 L 103.20 403.40 L 101.10 402.20 L 99.30 400.60 L 97.70 398.80 L 96.60 396.70 L 95.70 394.50 L 95.30 392.10 L 95.30 389.70 L 95.70 387.10 L 110.30 332.50 L 111.20 330.10 L 112.40 328.00 L 114.00 326.20 L 115.80 324.70 L 117.90 323.50 L 120.10 322.70 L 122.50 322.20 L 124.90 322.20 L 127.50 322.70 L 129.90 323.60 L 132.00 324.80 L 133.80 326.30 L 135.30 328.20 L 136.50 330.20 L 137.30 332.50 L 137.70 334.80 L 137.80 337.30 L 137.30 339.80 Z M 890.00 640.30 L 873.90 580.20 L 873.00 577.80 L 871.80 575.70 L 870.20 573.90 L 868.40 572.30 L 866.40 571.20 L 864.10 570.30 L 861.70 569.90 L 859.30 569.90 L 856.80 570.30 L 854.40 571.20 L 852.30 572.40 L 850.50 574.00 L 848.90 575.90 L 846.90 580.20 L 846.50 582.50 L 846.50 584.90 L 846.90 587.40 L 862.90 646.90 L 863.50 649.00 L 865.70 652.50 L 868.70 655.20 L 872.30 657.00 L 876.40 657.60 L 879.70 657.20 L 882.10 656.40 L 884.30 655.20 L 886.10 653.70 L 888.90 649.80 L 890.30 645.20 L 890.40 642.80 L 890.00 640.30 Z M 858.70 523.30 L 797.10 293.50 L 794.70 285.70 L 791.90 278.30 L 788.60 271.10 L 784.90 264.10 L 780.80 257.40 L 776.20 251.10 L 771.20 245.00 L 765.80 239.30 L 760.00 233.90 L 753.90 228.90 L 747.40 224.20 L 740.40 219.90 L 734.40 216.60 L 727.60 213.40 L 720.70 210.70 L 713.70 208.40 L 706.60 206.50 L 699.50 205.10 L 692.20 204.10 L 685.00 203.60 L 677.70 203.50 L 670.40 203.90 L 663.10 204.70 L 655.80 206.00 L 648.50 207.70 L 641.60 209.70 L 634.50 212.30 L 627.60 215.30 L 620.90 218.70 L 614.60 222.50 L 608.40 226.70 L 602.60 231.30 L 597.10 236.10 L 591.90 241.30 L 587.00 246.70 L 582.40 252.50 L 578.20 258.50 L 574.40 264.80 L 570.90 271.30 L 567.90 278.10 L 565.30 285.00 L 563.10 292.10 L 558.10 311.10 L 555.60 317.70 L 552.80 324.10 L 549.60 330.20 L 546.00 336.10 L 542.00 341.70 L 537.70 346.90 L 533.10 351.90 L 528.20 356.60 L 523.00 360.90 L 517.50 364.90 L 511.80 368.50 L 505.80 371.80 L 499.60 374.60 L 493.30 377.10 L 486.70 379.10 L 480.00 380.80 L 473.10 381.90 L 466.10 382.60 L 459.00 382.90 L 451.70 382.60 L 444.60 381.90 L 437.60 380.60 L 430.60 378.90 L 423.80 376.70 L 417.70 374.30 L 411.90 371.60 L 400.90 365.10 L 395.70 361.40 L 386.20 353.20 L 377.60 343.80 L 373.80 338.80 L 367.10 328.00 L 364.30 322.40 L 359.60 310.40 L 354.70 291.60 L 352.10 283.50 L 349.00 275.70 L 345.30 268.20 L 341.20 260.90 L 336.60 254.10 L 331.60 247.50 L 326.20 241.30 L 320.30 235.60 L 314.10 230.20 L 307.50 225.30 L 300.50 220.70 L 293.20 216.70 L 285.60 213.20 L 277.70 210.20 L 269.50 207.70 L 261.80 205.90 L 254.00 204.60 L 246.30 203.80 L 238.60 203.50 L 230.90 203.70 L 223.20 204.40 L 215.60 205.60 L 208.00 207.40 L 200.50 209.60 L 190.00 213.60 L 187.80 214.90 L 185.90 216.40 L 184.30 218.20 L 183.00 220.20 L 182.20 222.40 L 181.70 224.80 L 181.60 227.20 L 181.90 229.60 L 182.80 232.00 L 184.00 234.20 L 185.50 236.10 L 187.30 237.70 L 189.40 239.00 L 191.60 239.80 L 193.90 240.30 L 196.30 240.40 L 198.70 240.00 L 210.70 235.70 L 217.90 233.70 L 225.20 232.40 L 232.60 231.60 L 240.00 231.50 L 247.40 231.90 L 254.80 233.00 L 262.30 234.70 L 268.60 236.60 L 274.70 238.90 L 280.50 241.70 L 286.10 244.70 L 291.50 248.20 L 296.60 252.00 L 301.40 256.10 L 305.90 260.60 L 310.10 265.30 L 313.90 270.30 L 317.40 275.60 L 320.60 281.20 L 323.40 286.90 L 325.80 292.90 L 327.80 299.10 L 330.00 308.60 L 333.00 319.10 L 335.70 326.80 L 338.90 334.20 L 342.50 341.40 L 346.60 348.40 L 351.00 355.00 L 355.90 361.40 L 361.10 367.40 L 366.60 373.20 L 372.50 378.60 L 378.80 383.60 L 385.30 388.30 L 392.10 392.60 L 399.20 396.50 L 406.60 400.00 L 414.30 403.00 L 421.50 405.40 L 428.80 407.30 L 436.20 408.90 L 443.70 410.00 L 451.30 410.60 L 459.00 410.80 L 468.10 410.50 L 476.90 409.60 L 485.60 408.20 L 494.10 406.10 L 502.50 403.50 L 510.50 400.40 L 518.30 396.80 L 525.90 392.70 L 533.20 388.10 L 540.10 383.00 L 546.70 377.60 L 553.00 371.60 L 558.80 365.30 L 564.30 358.70 L 569.30 351.60 L 573.90 344.10 L 577.90 336.40 L 581.50 328.40 L 584.60 320.00 L 587.10 311.30 L 590.40 298.10 L 592.90 290.90 L 596.00 283.90 L 599.60 277.20 L 603.80 270.80 L 608.40 264.80 L 613.40 259.30 L 619.00 254.10 L 624.90 249.40 L 631.20 245.20 L 637.90 241.40 L 645.00 238.20 L 655.70 234.70 L 663.20 233.00 L 669.10 232.10 L 681.00 231.50 L 692.70 232.40 L 704.30 234.80 L 715.60 238.70 L 726.50 244.10 L 731.80 247.40 L 736.80 251.00 L 746.00 259.00 L 750.20 263.50 L 757.50 273.00 L 763.60 283.50 L 766.10 289.00 L 768.30 294.80 L 770.10 300.70 L 832.40 532.50 L 834.50 536.00 L 836.70 538.00 L 839.30 539.60 L 843.10 540.70 L 845.20 540.90 L 848.80 540.40 L 851.20 539.50 L 853.30 538.30 L 855.10 536.70 L 857.80 532.90 L 858.70 530.60 L 859.10 528.30 L 859.10 525.80 L 858.70 523.30 Z M 330.80 466.10 L 330.50 471.70 L 329.90 477.10 L 328.80 482.30 L 327.30 487.40 L 325.40 492.40 L 323.20 497.10 L 320.60 501.70 L 317.70 506.00 L 310.90 513.90 L 303.00 520.60 L 298.70 523.50 L 294.20 526.10 L 289.40 528.30 L 284.50 530.20 L 279.40 531.70 L 274.10 532.80 L 268.70 533.40 L 263.10 533.70 L 257.50 533.40 L 252.10 532.80 L 246.80 531.70 L 241.70 530.20 L 236.80 528.30 L 232.00 526.10 L 227.50 523.50 L 223.20 520.60 L 215.30 513.90 L 208.50 506.00 L 205.60 501.70 L 203.10 497.10 L 200.80 492.40 L 198.90 487.40 L 197.50 482.30 L 196.40 477.10 L 195.70 471.70 L 195.50 466.10 L 195.70 460.50 L 196.40 455.00 L 197.50 449.80 L 198.90 444.70 L 200.80 439.70 L 203.10 435.00 L 205.60 430.50 L 208.50 426.10 L 215.30 418.20 L 223.20 411.50 L 227.50 408.50 L 232.00 406.00 L 236.80 403.70 L 241.70 401.90 L 246.80 400.40 L 252.10 399.30 L 257.50 398.60 L 263.10 398.40 L 268.70 398.60 L 274.10 399.30 L 279.40 400.40 L 284.50 401.90 L 289.40 403.70 L 294.20 406.00 L 298.70 408.50 L 303.00 411.50 L 310.90 418.20 L 317.70 426.10 L 320.60 430.40 L 323.20 435.00 L 325.40 439.70 L 327.30 444.70 L 328.80 449.80 L 329.90 455.00 L 330.50 460.50 L 330.80 466.10 Z M 302.80 466.10 L 302.00 458.00 L 299.70 450.60 L 296.00 443.90 L 291.10 438.00 L 285.30 433.20 L 278.50 429.50 L 271.10 427.20 L 263.10 426.40 L 259.00 426.60 L 251.30 428.20 L 244.20 431.20 L 237.90 435.40 L 232.50 440.90 L 228.20 447.10 L 225.20 454.30 L 223.70 462.00 L 223.40 466.10 L 223.70 470.20 L 225.20 477.90 L 228.20 485.00 L 232.50 491.30 L 237.90 496.70 L 240.90 498.90 L 247.70 502.60 L 255.00 504.90 L 263.10 505.70 L 271.10 504.90 L 278.50 502.60 L 285.30 498.90 L 291.10 494.10 L 296.00 488.20 L 299.70 481.50 L 302.00 474.10 L 302.80 466.10 Z M 609.30 427.50 L 609.10 424.60 L 607.60 419.40 L 606.40 417.00 L 604.30 414.00 L 601.80 411.50 L 598.90 409.40 L 596.50 408.20 L 591.20 406.80 L 588.30 406.60 L 585.40 406.80 L 580.10 408.20 L 577.70 409.40 L 574.80 411.50 L 572.30 414.00 L 570.20 417.00 L 568.10 421.90 L 567.60 424.60 L 567.30 427.50 L 568.10 433.20 L 570.20 438.10 L 572.30 441.10 L 574.80 443.60 L 577.70 445.60 L 580.20 446.90 L 585.40 448.30 L 588.30 448.50 L 591.20 448.30 L 596.50 446.90 L 598.90 445.60 L 601.80 443.60 L 604.30 441.10 L 606.40 438.10 L 607.60 435.70 L 609.10 430.40 L 609.30 427.50 Z M 721.30 448.50 L 724.20 448.30 L 729.40 446.90 L 731.90 445.70 L 734.80 443.60 L 737.30 441.10 L 739.40 438.10 L 740.60 435.70 L 742.00 430.40 L 742.30 427.60 L 742.00 424.60 L 740.60 419.40 L 739.40 417.00 L 737.30 414.00 L 734.80 411.50 L 731.90 409.40 L 726.90 407.30 L 724.20 406.80 L 721.30 406.60 L 715.70 407.30 L 710.70 409.40 L 707.80 411.50 L 705.30 414.00 L 703.20 417.00 L 702.00 419.40 L 700.50 424.70 L 700.30 427.60 L 700.50 430.40 L 702.00 435.70 L 703.20 438.10 L 705.30 441.10 L 707.80 443.60 L 710.70 445.70 L 713.10 446.90 L 718.40 448.30 L 721.30 448.50 Z M 705.10 489.20 L 704.90 494.40 L 704.10 499.30 L 702.90 504.10 L 701.20 508.70 L 699.00 513.20 L 696.50 517.30 L 693.60 521.10 L 690.40 524.70 L 686.80 528.00 L 682.90 530.90 L 678.80 533.40 L 674.40 535.50 L 669.80 537.20 L 665.00 538.50 L 660.00 539.20 L 654.80 539.50 L 649.60 539.20 L 644.60 538.50 L 639.80 537.20 L 635.20 535.50 L 630.80 533.40 L 626.60 530.90 L 622.80 528.00 L 619.20 524.70 L 615.90 521.10 L 613.10 517.30 L 610.60 513.20 L 608.40 508.70 L 606.70 504.10 L 605.50 499.40 L 604.70 494.40 L 604.50 489.20 L 604.70 486.60 L 605.30 484.20 L 606.40 482.10 L 607.70 480.10 L 609.40 478.50 L 611.40 477.10 L 613.50 476.00 L 615.90 475.40 L 618.40 475.20 L 691.10 475.20 L 693.70 475.40 L 696.10 476.00 L 698.20 477.10 L 700.20 478.50 L 701.80 480.10 L 703.20 482.10 L 704.30 484.20 L 704.90 486.60 L 705.10 489.20 Z M 672.30 503.10 L 637.30 503.10 L 639.60 505.50 L 642.10 507.60 L 644.90 509.20 L 648.00 510.50 L 651.30 511.20 L 654.80 511.50 L 658.30 511.20 L 661.60 510.50 L 664.60 509.20 L 667.50 507.60 L 670.00 505.50 L 672.30 503.10 Z" fill="#000000" fill-rule="nonzero" node-id="994" stroke="none" target-height="587.4" target-width="866" target-x="24.4" target-y="203.5"></path></svg>