<?xml version="1.0" standalone="no"?><!DOCTYPE svg PUBLIC "-//W3C//DTD SVG 1.1//EN" "http://www.w3.org/Graphics/SVG/1.1/DTD/svg11.dtd"><svg t="1751911911662" class="icon" viewBox="0 0 1024 1024" version="1.1" xmlns="http://www.w3.org/2000/svg" p-id="1221" xmlns:xlink="http://www.w3.org/1999/xlink" width="200" height="200"><path d="M644.608 536.828c0.664-0.296-99.392-22.996-30.304-132.516A3365.64 3365.64 0 0 0 328 440.82l4.716 87.82c-203.972 40.352-268.456 161.988-249.356 288.244 14.676 95.248 139.052 147.54 286.412 169.648 186.496 19.972 530.644 29.368 556.18-114.372 19.356-128.304-43.92-277.076-281.344-335.332z" fill="#404040" p-id="1222"></path><path d="M622.244 404.924a3367.68 3367.68 0 0 0-317.228 38.192l12.92 213.392c8.28 128.492 224.612 35.384 308.644-54.064 58.724-65.548 17.32-69.532 17.048-69.564 0.644-0.216-90.3-28.48-21.384-127.956z" fill="#FFBB9E" p-id="1223"></path><path d="M776.28 196.308a3.996 3.996 0 0 1 5.708 1.068 4.384 4.384 0 0 1-1.112 5.928 3.996 3.996 0 0 1-5.704-1.068 4.384 4.384 0 0 1 1.108-5.928" fill="#FFFFFF" p-id="1224"></path><path d="M528.008 26.344C279.684-20.128 233.344 117.056 200.812 290.896c-32.532 173.832 45.772 334.352 209.384 364.968 163.612 30.62 310.636-87.728 343.168-261.56 32.536-173.836-14.428-328.484-225.356-367.96z" fill="#404040" p-id="1225"></path><path d="M623.908 338.096c-8.58 45.856-100.908 69.52-205.668 49.916S267.9 318.928 276.48 273.076c8.584-45.856 66.188-60.66 170.952-41.052 141.764 26.532 185.06 60.216 176.476 106.072z" fill="#FFBB9E" p-id="1226"></path></svg>